<svg version="1.1" viewBox="0 0 18 18" width="18" height="18" xmlns="http://www.w3.org/2000/svg"><g><path d="m15.557 5.4168a8 8 0 1 1-13.127 0.018599 0.5 0.5 0 0 1 0.72265-0.10541l0.78339 0.62566a0.5 0.5 0 0 1 0.10151 0.67174 6 6 0 1 0 9.9153-0.014048 0.5 0.5 0 0 1 0.09961-0.67202l0.78162-0.62788a0.5 0.5 0 0 1 0.72295 0.10336z"/><path d="m9.22 2.003a0.5 0.5 0 0 1 0.48403 0.54685l-0.094323 0.99813a0.5 0.5 0 0 1-0.50639 0.45289 6 6 0 0 0-0.18647-3.135e-4 0.5 0.5 0 0 1-0.50487-0.45459l-0.090966-0.99844a0.5 0.5 0 0 1 0.48587-0.54522 8 8 0 0 1 0.41312 6.946e-4z"/></g><g><path d="m8.3137 14h1.3986c0.20719 0 0.36259-0.1554 0.36259-0.36259v-4.3905l5.2835-8.5468c0.20719-0.33669 0-0.69928-0.38849-0.69928h-1.3986c-0.1554 0-0.28489 0.077698-0.38849 0.23309l-4.1698 6.9151-4.1957-6.9151c-0.1036-0.1554-0.23309-0.23309-0.38849-0.23309h-1.3986c-0.38849 0-0.59568 0.36259-0.38849 0.69928l5.3094 8.6245v4.3128c0 0.20719 0.1554 0.36259 0.36259 0.36259z" color="#000000" color-rendering="auto" dominant-baseline="auto" image-rendering="auto" shape-rendering="auto" solid-color="#000000" stop-color="#000000" style="font-feature-settings:normal;font-variant-alternates:normal;font-variant-caps:normal;font-variant-east-asian:normal;font-variant-ligatures:normal;font-variant-numeric:normal;font-variant-position:normal;font-variation-settings:normal;inline-size:0;isolation:auto;mix-blend-mode:normal;paint-order:stroke markers fill;shape-margin:0;shape-padding:0;text-decoration-color:#000000;text-decoration-line:none;text-decoration-style:solid;text-indent:0;text-orientation:mixed;text-transform:none;white-space:normal"/></g></svg>
