<svg fill="none" version="1.1" viewBox="0 0 18 18" width="18" height="18" xmlns="http://www.w3.org/2000/svg"><path d="m8.9911 1.5382a8.2309 8.2309 0 0 0-8.222 8.2309 8.2309 8.2309 0 0 0 8.2309 8.2309 8.2309 8.2309 0 0 0 8.2309-8.2309 8.2309 8.2309 0 0 0-8.2309-8.2309 8.2309 8.2309 0 0 0-0.00893 0zm-0.076807 1.8291a6.4018 6.4018 0 0 1 0.085739 0 6.4018 6.4018 0 0 1 0.20363 0.00358 6.4018 6.4018 0 0 1 0.20363 0.00893 6.4018 6.4018 0 0 1 0.20184 0.016075 6.4018 6.4018 0 0 1 0.20184 0.023222 6.4018 6.4018 0 0 1 0.20184 0.02858 6.4018 6.4018 0 0 1 0.20006 0.035724 6.4018 6.4018 0 0 1 0.20006 0.041083 6.4018 6.4018 0 0 1 0.19648 0.048228 6.4018 6.4018 0 0 1 0.19648 0.055373 6.4018 6.4018 0 0 1 0.1947 0.060731 6.4018 6.4018 0 0 1 0.19291 0.06609 6.4018 6.4018 0 0 1 0.18934 0.073235 6.4018 6.4018 0 0 1 0.18755 0.078594 6.4018 6.4018 0 0 1 0.18577 0.083952 6.4018 6.4018 0 0 1 0.18219 0.091097 6.4018 6.4018 0 0 1 0.17862 0.096455 6.4018 6.4018 0 0 1 0.17683 0.10181 6.4018 6.4018 0 0 1 0.17148 0.10717 6.4018 6.4018 0 0 1 0.16969 0.11253 6.4018 6.4018 0 0 1 0.16612 0.11789 6.4018 6.4018 0 0 1 0.16076 0.12325 6.4018 6.4018 0 0 1 0.15897 0.12861 6.4018 6.4018 0 0 1 0.15362 0.13397 6.4018 6.4018 0 0 1 0.14826 0.13754 6.4018 6.4018 0 0 1 0.14468 0.1429 6.4018 6.4018 0 0 1 0.14111 0.14826 6.4018 6.4018 0 0 1 0.13575 0.15183 6.4018 6.4018 0 0 1 0.13039 0.1554 6.4018 6.4018 0 0 1 0.12504 0.16076 6.4018 6.4018 0 0 1 0.12146 0.16255 6.4018 6.4018 0 0 1 0.11432 0.1679 6.4018 6.4018 0 0 1 0.10896 0.17148 6.4018 6.4018 0 0 1 0.10539 0.17505 6.4018 6.4018 0 0 1 0.09824 0.17862 6.4018 6.4018 0 0 1 0.09288 0.18041 6.4018 6.4018 0 0 1 0.08752 0.18398 6.4018 6.4018 0 0 1 0.08038 0.18577 6.4018 6.4018 0 0 1 0.07501 0.18934 6.4018 6.4018 0 0 1 0.06967 0.19113 6.4018 6.4018 0 0 1 0.06251 0.1947 6.4018 6.4018 0 0 1 0.05716 0.1947 6.4018 6.4018 0 0 1 0.0518 0.19648 6.4018 6.4018 0 0 1 0.04466 0.19827 6.4018 6.4018 0 0 1 0.03751 0.20006 6.4018 6.4018 0 0 1 0.03216 0.20184 6.4018 6.4018 0 0 1 0.025 0.20184 6.4018 6.4018 0 0 1 0.01786 0.20184 6.4018 6.4018 0 0 1 0.0125 0.20363 6.4018 6.4018 0 0 1 0.0072 0.20362 6.4018 6.4018 0 0 1 0 0.085739 6.4018 6.4018 0 0 1-0.0036 0.20363 6.4018 6.4018 0 0 1-9e-3 0.20363 6.4018 6.4018 0 0 1-0.01607 0.20184 6.4018 6.4018 0 0 1-0.02321 0.20184 6.4018 6.4018 0 0 1-0.02858 0.20184 6.4018 6.4018 0 0 1-0.03573 0.20006 6.4018 6.4018 0 0 1-0.04108 0.20006 6.4018 6.4018 0 0 1-0.04822 0.19648 6.4018 6.4018 0 0 1-0.05537 0.19648 6.4018 6.4018 0 0 1-0.06073 0.1947 6.4018 6.4018 0 0 1-0.06609 0.19291 6.4018 6.4018 0 0 1-0.07324 0.18934 6.4018 6.4018 0 0 1-0.0786 0.18755 6.4018 6.4018 0 0 1-0.08396 0.18577 6.4018 6.4018 0 0 1-0.0911 0.1822 6.4018 6.4018 0 0 1-0.09646 0.17862 6.4018 6.4018 0 0 1-0.10182 0.17684 6.4018 6.4018 0 0 1-0.10717 0.17148 6.4018 6.4018 0 0 1-0.11253 0.16969 6.4018 6.4018 0 0 1-0.11789 0.16612 6.4018 6.4018 0 0 1-0.12325 0.16076 6.4018 6.4018 0 0 1-0.12861 0.15897 6.4018 6.4018 0 0 1-0.13397 0.15361 6.4018 6.4018 0 0 1-0.13754 0.14826 6.4018 6.4018 0 0 1-0.1429 0.14468 6.4018 6.4018 0 0 1-0.14826 0.14111 6.4018 6.4018 0 0 1-0.15183 0.13575 6.4018 6.4018 0 0 1-0.1554 0.13039 6.4018 6.4018 0 0 1-0.16076 0.12504 6.4018 6.4018 0 0 1-0.16255 0.12146 6.4018 6.4018 0 0 1-0.1679 0.11432 6.4018 6.4018 0 0 1-0.17148 0.10896 6.4018 6.4018 0 0 1-0.17505 0.10539 6.4018 6.4018 0 0 1-0.17862 0.09824 6.4018 6.4018 0 0 1-0.18041 0.09288 6.4018 6.4018 0 0 1-0.18398 0.08752 6.4018 6.4018 0 0 1-0.18577 0.08038 6.4018 6.4018 0 0 1-0.18934 0.07502 6.4018 6.4018 0 0 1-0.19112 0.06966 6.4018 6.4018 0 0 1-0.1947 0.06252 6.4018 6.4018 0 0 1-0.1947 0.05716 6.4018 6.4018 0 0 1-0.19648 0.0518 6.4018 6.4018 0 0 1-0.19827 0.04466 6.4018 6.4018 0 0 1-0.20006 0.03751 6.4018 6.4018 0 0 1-0.20184 0.03216 6.4018 6.4018 0 0 1-0.20184 0.025 6.4018 6.4018 0 0 1-0.20184 0.01786 6.4018 6.4018 0 0 1-0.20363 0.0125 6.4018 6.4018 0 0 1-0.20359 0.0072 6.4018 6.4018 0 0 1-0.085739 0 6.4018 6.4018 0 0 1-0.20363-0.0036 6.4018 6.4018 0 0 1-0.20363-9e-3 6.4018 6.4018 0 0 1-0.20184-0.01607 6.4018 6.4018 0 0 1-0.20184-0.02322 6.4018 6.4018 0 0 1-0.20184-0.02858 6.4018 6.4018 0 0 1-0.20006-0.03573 6.4018 6.4018 0 0 1-0.20006-0.04108 6.4018 6.4018 0 0 1-0.19648-0.0482 6.4018 6.4018 0 0 1-0.19648-0.05537 6.4018 6.4018 0 0 1-0.1947-0.060733 6.4018 6.4018 0 0 1-0.19291-0.066091 6.4018 6.4018 0 0 1-0.18934-0.073232 6.4018 6.4018 0 0 1-0.18753-0.078579 6.4018 6.4018 0 0 1-0.18577-0.083954 6.4018 6.4018 0 0 1-0.18219-0.091096 6.4018 6.4018 0 0 1-0.17862-0.096457 6.4018 6.4018 0 0 1-0.17684-0.10181 6.4018 6.4018 0 0 1-0.17148-0.10717 6.4018 6.4018 0 0 1-0.16969-0.11253 6.4018 6.4018 0 0 1-0.16612-0.11789 6.4018 6.4018 0 0 1-0.16076-0.12325 6.4018 6.4018 0 0 1-0.15897-0.12861 6.4018 6.4018 0 0 1-0.15361-0.13396 6.4018 6.4018 0 0 1-0.14826-0.13754 6.4018 6.4018 0 0 1-0.14468-0.1429 6.4018 6.4018 0 0 1-0.14111-0.14826 6.4018 6.4018 0 0 1-0.13575-0.15183 6.4018 6.4018 0 0 1-0.13039-0.1554 6.4018 6.4018 0 0 1-0.12504-0.16076 6.4018 6.4018 0 0 1-0.12146-0.16255 6.4018 6.4018 0 0 1-0.11432-0.1679 6.4018 6.4018 0 0 1-0.10896-0.17148 6.4018 6.4018 0 0 1-0.10539-0.17505 6.4018 6.4018 0 0 1-0.098242-0.17862 6.4018 6.4018 0 0 1-0.092883-0.18041 6.4018 6.4018 0 0 1-0.087525-0.18398 6.4018 6.4018 0 0 1-0.08038-0.18577 6.4018 6.4018 0 0 1-0.075021-0.18934 6.4018 6.4018 0 0 1-0.069662-0.19112 6.4018 6.4018 0 0 1-0.062518-0.1947 6.4018 6.4018 0 0 1-0.057159-0.1947 6.4018 6.4018 0 0 1-0.0518-0.19648 6.4018 6.4018 0 0 1-0.044656-0.19827 6.4018 6.4018 0 0 1-0.03751-0.20006 6.4018 6.4018 0 0 1-0.032152-0.20184 6.4018 6.4018 0 0 1-0.025007-0.20184 6.4018 6.4018 0 0 1-0.017862-0.20184 6.4018 6.4018 0 0 1-0.012504-0.20363 6.4018 6.4018 0 0 1-0.00714-0.20363 6.4018 6.4018 0 0 1 0-0.085739 6.4018 6.4018 0 0 1 0.00358-0.20363 6.4018 6.4018 0 0 1 0.00893-0.20363 6.4018 6.4018 0 0 1 0.016075-0.20184 6.4018 6.4018 0 0 1 0.02322-0.20184 6.4018 6.4018 0 0 1 0.02858-0.20184 6.4018 6.4018 0 0 1 0.035725-0.20006 6.4018 6.4018 0 0 1 0.041083-0.20006 6.4018 6.4018 0 0 1 0.048228-0.19648 6.4018 6.4018 0 0 1 0.055372-0.19648 6.4018 6.4018 0 0 1 0.060732-0.1947 6.4018 6.4018 0 0 1 0.06609-0.19291 6.4018 6.4018 0 0 1 0.073235-0.18934 6.4018 6.4018 0 0 1 0.078583-0.18755 6.4018 6.4018 0 0 1 0.083952-0.18577 6.4018 6.4018 0 0 1 0.091097-0.18219 6.4018 6.4018 0 0 1 0.096456-0.17862 6.4018 6.4018 0 0 1 0.10181-0.17684 6.4018 6.4018 0 0 1 0.10717-0.17148 6.4018 6.4018 0 0 1 0.11253-0.16969 6.4018 6.4018 0 0 1 0.11789-0.16612 6.4018 6.4018 0 0 1 0.12325-0.16076 6.4018 6.4018 0 0 1 0.12861-0.15897 6.4018 6.4018 0 0 1 0.13397-0.15361 6.4018 6.4018 0 0 1 0.13754-0.14826 6.4018 6.4018 0 0 1 0.1429-0.14468 6.4018 6.4018 0 0 1 0.14826-0.14111 6.4018 6.4018 0 0 1 0.15183-0.13575 6.4018 6.4018 0 0 1 0.1554-0.13039 6.4018 6.4018 0 0 1 0.16076-0.12504 6.4018 6.4018 0 0 1 0.16255-0.12146 6.4018 6.4018 0 0 1 0.1679-0.11432 6.4018 6.4018 0 0 1 0.17148-0.10896 6.4018 6.4018 0 0 1 0.17505-0.10539 6.4018 6.4018 0 0 1 0.17862-0.098242 6.4018 6.4018 0 0 1 0.18041-0.092884 6.4018 6.4018 0 0 1 0.18398-0.087525 6.4018 6.4018 0 0 1 0.18577-0.08038 6.4018 6.4018 0 0 1 0.18934-0.075022 6.4018 6.4018 0 0 1 0.19113-0.069662 6.4018 6.4018 0 0 1 0.1947-0.062517 6.4018 6.4018 0 0 1 0.1947-0.057159 6.4018 6.4018 0 0 1 0.19648-0.0518 6.4018 6.4018 0 0 1 0.19827-0.044655 6.4018 6.4018 0 0 1 0.20006-0.03751 6.4018 6.4018 0 0 1 0.20184-0.032152 6.4018 6.4018 0 0 1 0.20184-0.025007 6.4018 6.4018 0 0 1 0.20184-0.017862 6.4018 6.4018 0 0 1 0.20363-0.012504 6.4018 6.4018 0 0 1 0.20363-0.00714z" fill="#000" stop-color="#000000" stroke-width=".37516" style="paint-order:fill markers stroke"/><g stroke="#fff" stroke-width="2"><g fill="#000" stroke="#fff" stroke-width="2" aria-label="Y"><g><path d="m3.0293-1c-0.50536 0-1.0313 0.27488-1.2891 0.73438-0.25776 0.45949-0.21476 1.0587 0.050781 1.4902l5.1602 8.3828v4.4141c0 0.70722 0.65607 1.3633 1.3633 1.3633h1.3984c0.70721 0 1.3613-0.65607 1.3613-1.3633v-4.4902l5.1348-8.3066h2e-3c0.2655-0.43152 0.30654-1.0307 0.048782-1.4902-0.25776-0.45949-0.78371-0.73438-1.2891-0.73438z" color="#000000" color-rendering="auto" dominant-baseline="auto" fill="#fff" image-rendering="auto" shape-rendering="auto" solid-color="#000000" stop-color="#000000" stroke="none" style="font-feature-settings:normal;font-variant-alternates:normal;font-variant-caps:normal;font-variant-east-asian:normal;font-variant-ligatures:normal;font-variant-numeric:normal;font-variant-position:normal;font-variation-settings:normal;inline-size:0;isolation:auto;mix-blend-mode:normal;paint-order:stroke markers fill;shape-margin:0;shape-padding:0;text-decoration-color:#000000;text-decoration-line:none;text-decoration-style:solid;text-indent:0;text-orientation:mixed;text-transform:none;white-space:normal"/></g></g></g><g><path d="m8.3137 14.385h1.3986c0.20719 0 0.36259-0.1554 0.36259-0.36259v-4.7759l5.2835-8.5468c0.20719-0.33669 0-0.69928-0.38849-0.69928h-1.3986c-0.1554 0-0.28489 0.077698-0.38849 0.23309l-4.1698 6.9151-4.1957-6.9151c-0.1036-0.1554-0.23309-0.23309-0.38849-0.23309h-1.3986c-0.38849 0-0.59568 0.36259-0.38849 0.69928l5.3094 8.6245v4.6982c0 0.20719 0.1554 0.36259 0.36259 0.36259z" color="#000000" color-rendering="auto" dominant-baseline="auto" fill="#000" image-rendering="auto" shape-rendering="auto" solid-color="#000000" stop-color="#000000" style="font-feature-settings:normal;font-variant-alternates:normal;font-variant-caps:normal;font-variant-east-asian:normal;font-variant-ligatures:normal;font-variant-numeric:normal;font-variant-position:normal;font-variation-settings:normal;inline-size:0;isolation:auto;mix-blend-mode:normal;paint-order:stroke markers fill;shape-margin:0;shape-padding:0;text-decoration-color:#000000;text-decoration-line:none;text-decoration-style:solid;text-indent:0;text-orientation:mixed;text-transform:none;white-space:normal"/></g></svg>
