<svg version="1.1" viewBox="0 0 18 18" width="18" height="18" xmlns="http://www.w3.org/2000/svg"><g transform="matrix(.81818 0 0 .81818 .81818 .81818)"><circle cx="10" cy="10" r="11" fill="#30bf40"/><path d="m17.039 5.3452-0.78982 0.63447a0.5 0.5 0 0 0-0.12438 0.63184 7 7 0 1 1-12.261 0.018841 0.5 0.5 0 0 0-0.12623-0.63138l-0.79165-0.63225a0.5 0.5 0 0 0-0.74529 0.14113 9 9 0 1 0 15.584-0.023723 0.5 0.5 0 0 0-0.74564-0.13892z" fill="#fff"/><path d="m13.333 2.7977a0.5 0.5 0 0 1 0.42492-0.23943l1.1743-0.00427a0.5 0.5 0 0 1 0.42856 0.76057l-4.3606 7.1414v4.0441a0.5 0.5 0 0 1-0.5 0.5h-1a0.5 0.5 0 0 1-0.5-0.5v-4.0964l-4.3522-7.0696a0.5 0.5 0 0 1 0.42578-0.76212h1.1743a0.5 0.5 0 0 1 0.42578 0.23788l3.3395 5.4245z" fill="#fff"/></g></svg>
