<?xml version="1.0" encoding="UTF-8"?>
<svg width="42" height="52" version="1.1" viewBox="0 0 11.112 13.758" xmlns="http://www.w3.org/2000/svg" xmlns:cc="http://creativecommons.org/ns#" xmlns:dc="http://purl.org/dc/elements/1.1/" xmlns:rdf="http://www.w3.org/1999/02/22-rdf-syntax-ns#"><metadata><rdf:RDF><cc:Work rdf:about=""><dc:format>image/svg+xml</dc:format><dc:type rdf:resource="http://purl.org/dc/dcmitype/StillImage"/><dc:title/></cc:Work></rdf:RDF></metadata><g transform="scale(.16614 .16341)"><g><path d="m2.1378 63.993c-0.54057-0.62476-0.53966-0.51035-0.0196-2.4808 0.63139-2.3924 0.73098-2.7095 1.5031-4.7849 0.38981-1.0478 0.83593-2.2479 0.99139-2.667 0.3583-0.96593 1.3063-3.3133 1.607-3.9793 0.12617-0.2794 0.39706-0.939 0.60199-1.4658 0.34941-0.89818 0.79949-1.8036 1.1488-2.3112 0.0837-0.12153 0.82957-0.69626 1.6576-1.2772 0.82804-0.58091 2.5533-1.837 3.8339-2.7914 2.9652-2.2098 7.4688-5.2719 8.621-5.8615 0.29688-0.15192 2.851-0.34056 4.5369-0.39339 8.288-0.25968 13.219-0.75345 18.909 0.12448 1.2308 0.18992 3.2066 0.43573 4.1922 0.53796 1.9507 0.20232 3.9998 0.88022 5.3221 1.176 0.51959 0.11621 1.127 0.3885 3.4889 2.631 0.55166 0.52375 1.4094 1.2833 1.9061 1.6879 1.5092 1.2294 3.2248 2.9075 3.2735 3.2018 0.0231 0.1397 0.13711 0.8636 0.25331 1.6087 0.11621 0.74507 0.30471 1.9452 0.41889 2.667 0.53416 3.3766 0.71607 6.8831 0.69544 13.405l-0.0155 4.8958-0.42197 0.30868c-0.43823 0.32057-0.99876 0.70818-2.9241 2.022-0.62621 0.42733-1.4815 1.0531-1.9006 1.3905-1.9139 1.5411-4.9918 3.7031-7.2813 5.1146-0.51223 0.3158-1.1599 0.73521-1.4393 0.93203-1.3059 0.91989-2.9287 1.767-3.556 1.8563-0.23283 0.0331-1.3109 0.28592-2.3956 0.56173-4.3814 1.2639-9.1398 2.6012-15.647 2.6659-4.63 0.046-11.43-2.6893-13.186-3.5722-1.2793-0.64322-7.8987-5.9037-14.174-15.203z" fill="#fff" stroke-width=".084667"/><path d="m21.844 44.02c0-0.0505 0.23747-0.19337 0.52771-0.3175 1.8256-0.78078 4.1052-2.0542 6.5595-3.6642 1.0907-0.71548 1.9423-1.5292 2.574-2.4594 0.18057-0.26589 0.53223-0.72404 0.78148-1.0181s0.59644-0.80138 0.77153-1.1273c0.1751-0.32597 0.35835-0.6418 0.40723-0.70186 0.0489-0.0601 0.14145-0.51725 0.20571-1.016 0.12672-0.98347 0.5087-2.2177 1.0468-3.3825 0.17948-0.38848 0.42678-1.075 0.54954-1.5257 0.29456-1.0812 0.46998-1.5353 1.4204-3.6771 1.7536-3.9516 2.13-6.0362 1.413-7.8267-0.39191-0.97875-0.28186-1.496 0.28786-1.353 0.1611 0.04043 0.26881 0.15236 0.35828 0.3723 0.0704 0.17297 0.29645 0.662 0.50242 1.0867s0.3745 0.81526 0.3745 0.86783c0 0.1932 0.23649 0.08825 0.33454-0.14846 0.10522-0.25403 0.36339-0.51562 0.8262-0.83715 0.56523-0.3927 0.58172-0.19928 0.0814 0.95518-0.73923 1.7059-1.3258 3.2351-1.526 3.9784-0.11289 0.4191-0.33974 1.2192-0.5041 1.778s-0.41347 1.4542-0.55359 1.9897c-0.14012 0.53552-0.33374 1.2586-0.43027 1.607-0.0965 0.34831-0.17552 0.79405-0.17552 0.99053s-0.0802 0.76875-0.17825 1.2717c-0.34942 1.7926-0.14756 2.6506 0.84514 3.5922 0.70893 0.67248 0.76567 0.71026 4.5401 3.0228 0.4191 0.25677 1.2686 0.72892 1.8878 1.0492 1.2814 0.66287 2.451 1.3574 3.1922 1.8958 0.2794 0.20294 1.1366 0.82446 1.905 1.3812 3.0117 2.1821 2.2657 2.2617-0.95817 0.1023-0.47419-0.31762-1.3167-0.83516-1.8723-1.1501-0.55557-0.31492-1.2985-0.75079-1.651-0.96859-0.35249-0.2178-0.75519-0.4456-0.89489-0.50622-0.1397-0.0606-0.7874-0.40684-1.4393-0.76938-1.1998-0.66723-2.3034-1.1891-2.5145-1.1891-0.2302 0-3.4778-1.3007-4.2165-1.6888-0.74953-0.39375-2.032 0.10022-2.032 0.78267 0 0.18298-0.55622 0.93775-1.2016 1.6306-0.34455 0.36986-0.86332 0.96535-1.1528 1.3233-0.92441 1.143-2.672 2.4934-4.1425 3.2009-0.40811 0.19637-1.0344 0.50504-1.3917 0.68594-2.2066 1.1171-4.5573 2.0264-4.5573 1.7628zm-1.8627-9.049c0-0.20721 1.632-0.3366 4.318-0.34235 1.234-3e-3 2.5294-0.0423 2.8787-0.0882s1.2446-0.11973 1.9897-0.16414c0.74507-0.0444 1.4807-0.11798 1.6347-0.16347 0.28298-0.0836 0.52431-0.0468 0.52431 0.0801 0 0.17505-1.3113 0.4192-2.2568 0.4202-0.33318 2.6e-4 -1.0952 0.0546-1.6933 0.12064-1.2152 0.13409-7.3952 0.24879-7.3952 0.13725zm25.483-0.45736c-0.68209-0.50071-0.63269-0.49345-1.8655-0.27419-0.85468 0.15201-1.1949 0.18011-1.4269 0.11789-0.92108-0.24698-1.4115-0.89611-0.64338-0.85165 0.37859 0.0219 2.816 0.10112 3.2292 0.10494 0.38692 4e-3 1.3005 0.68916 1.3005 0.97594 0 0.28097-0.13424 0.26449-0.59388-0.0729zm-18.947-1.0802c0.087-0.2655 0.93134-0.75202 1.2888-0.74256 1.3538 0.0358 1.8362 0.359 0.88922 0.59569-0.81698 0.20419-2.2279 0.29933-2.178 0.14687zm-7.0019-17.172c-1.9198-0.17943-3.822-0.92865-5.334-2.101-2.3207-1.7993-2.9348-2.3829-4.7431-4.508-1.4023-1.648-4.0243-4.322-5.103-5.2042-2.2264-1.6849-1.8065-1.7817-0.10434-2.1149 3.8926-1.1044 7.2079-1.5163 10.714-1.2034 1.7231 0.38634 3.8838 0.43827 7.8334 1.7227 2.5915 0.47171 4.7396 1.9613 7.4894 4.0301 2.4696 1.6471 6.6464 5.5405 6.6464 6.1953 0 0.03285 0.1143 0.32015 0.254 0.63844 1.2201 2.2342 0.26331 1.6963-2.0068 1.4918-2.2108-0.01111-2.7984 0.05346-5.3169 0.58431-2.1465 0.45243-7.7727 0.70782-10.329 0.46888zm22.902-0.682c0.37146-2.6578 3.3061-6.7356 6.6344-9.379 3.4068-2.7058 7.2819-3.9549 14.145-4.7017 2.5661-0.26207 2.0292 0.89315 1.6254 1.9528-2.1562 5.6845-4.6992 8.6246-8.9853 10.425-1.832 0.76964-3.3984 1.108-5.5457 1.1981-4.1236 0.17286-5.8786 0.31265-6.9268 0.55175-0.74787 0.1706-0.94724 0.16068-0.94724-0.04711z" fill="#fff" stroke-width=".084667"/><path d="m4.7172 66.534s-1.8899-3.4963-0.66146-6.2366c1.2284-2.7403 4.0632-9.8274 5.0082-11.15 0.94495-1.3229 8.599-5.2917 9.7329-6.0476s3.2128 1.0394 6.7091 1.7954 13.04 2.4568 13.985 2.4568 10.3-4.2522 11.623-4.3467c1.3229-0.0945 3.3073-0.56697 3.9688-0.37798 0.66146 0.18899 6.0476 2.7403 6.3311 3.2128s2.3624 24.096 2.3624 24.096l-14.741 10.111-14.741 2.9293-8.41 0.18899-10.016-3.4963z" fill="#e7e7e7"/><path d="m9.4201 48.409c0.3716-0.60182 2.94-0.66817 3.4077 0.26728 0.46772 0.93544 3.6415 9.0538 3.8754 9.2208 0.23386 0.16704 4.009 0.7684 4.3431 0.70158 0.33408-0.0668 9.1874-1.2361 9.7219-1.1693 0.53454 0.0668 31.02 5.9754 31.204 7.0158 0.20046 1.1359 0.10023 2.6393-0.10022 3.0736-0.20046 0.43431-4.6104 3.1738-5.3788 3.842-0.7684 0.66817-11.693 7.684-14.232 8.7197-2.5391 1.0357-13.263 2.4054-14.332 2.4054-1.0691 0-10.29-3.1738-10.824-3.4745s-12.647-7.9756-13.698-16.103c-0.23755-1.8379 4.4318-11.938 6.0136-14.499z" fill="#c8c8c8"/></g><path d="m32.681 84.071c2.8512-0.24895 8.4117-1.2728 11.557-2.1281 0.51223-0.13928 1.8457-0.47278 2.9633-0.74111s2.2034-0.5743 2.413-0.67993c0.56026-0.28244 2.0538-1.201 2.8787-1.7705 0.39582-0.27327 1.3293-0.90112 2.0743-1.3952 3.2297-2.1419 4.1102-2.7715 6.1807-4.4195 0.65193-0.51891 1.6044-1.24 2.1167-1.6025 1.5878-1.1236 2.7654-2.1185 3.3443-2.8253 0.30268-0.36956 0.57891-0.65461 0.61383-0.63344 0.0349 0.0212 0.0635-0.55654 0.0635-1.2838 0-0.85999-0.0296-1.304-0.0847-1.27-0.0932 0.0576-0.1045-0.55059-0.0882-4.7413 0.0189-4.8849-0.45984-9.6359-1.3566-13.462-0.69341-2.9584-0.62388-2.7746-1.2569-3.3221-0.30683-0.26542-0.86268-0.77285-1.2352-1.1276-0.37254-0.35478-1.0583-0.94854-1.524-1.3195-0.46567-0.37094-1.342-1.0752-1.9473-1.5649-2.5986-2.1024-3.7315-2.7763-5.2564-3.127-1.5817-0.36377-3.9325-0.80931-4.9036-0.92936l-0.84666-0.10467-0.508-0.51793c-0.2794-0.28487-0.86995-0.90365-1.3123-1.3751l-0.80433-0.85715-0.635-0.14843c-0.50397-0.1178-1.0892-0.15249-2.8363-0.16811-3.9665-0.0355-4.0996-0.30548-2.9649-6.0118 1.004-5.0492 0.88004-4.6372 2.2453-7.46 1.1909-2.4622 1.3872-2.528 8.4243-2.8226 1.9462-0.08149 2.1735-0.11108 3.6083-0.4697 5.4643-1.3658 8.5147-4.0195 10.58-9.2043 0.42616-1.0697 1.7841-5.0442 1.801-5.2713 0.0524-0.70431-5.5209-0.47554-8.285 0.34009-6.6321 1.957-9.3668 3.5958-12.921 7.7427-2.4093 2.8115-2.7195 3.268-3.0775 4.5297-0.22079 0.7781-0.89883 2.3526-1.0847 2.5188-0.50129 0.44828-0.79843 0.1317-1.8739-1.9965-1.6385-3.2425-2.478-4.2261-6.401-7.5003-4.2288-3.5293-10.397-5.9454-17.018-6.6659-0.76835-0.08361-1.4097-0.18167-1.4252-0.2179-0.043-0.10036-2.5541-0.08189-2.5541 0.01879 0 0.04657-0.18211 0.08467-0.40469 0.08467-2.3862 0-6.9821 1.2093-9.2016 2.4212-0.47486 0.25929-0.46808 0.28047 0.31098 0.97188 1.0663 0.94631 4.1216 4.0403 4.7304 4.7903 5.2762 6.4996 7.5114 8.2321 11.886 9.2133 2.2305 0.50026 7.2004 0.47721 10.016-0.04644 0.83787-0.15581 2.5762-0.38156 5.4374-0.7061 1.5962-0.18105 2.3137 0.05782 3.0538 1.0166l0.33282 0.43115v0.88825c0 1.1122-0.47581 3.0085-1.0266 4.0914-0.85113 1.6735-1.068 2.1267-1.7337 3.6218-0.90306 2.0284-1.4444 3.4078-1.6507 4.2066-0.35791 1.3853-0.54747 1.5641-1.469 1.3854-3.4359-0.66629-4.8468-0.48169-7.0206 0.91852l-0.49694 0.3201-1.3657 1e-3c-1.4469 1e-3 -1.6913 0.0287-3.3404 0.37713-1.4506 0.30648-1.9058 0.62281-2.4464 1.7001-0.11683 0.23283-0.42801 0.69003-0.69151 1.016-1.2056 1.4914-2.541 3.3273-2.6057 3.5824-0.0466 0.1835-0.72947 0.72195-4.9394 3.8946-0.58208 0.43867-1.1372 0.82771-1.2336 0.86453-0.4807 0.18361-1.1389 1.3366-1.9943 3.4935-0.37334 0.94137-0.90097 2.2069-1.1725 2.8123-0.69812 1.5564-1.5691 3.7825-1.7784 4.5456-0.15998 0.5831-1.0955 3.1494-1.8989 5.2091-0.16734 0.42894-0.30426 0.87483-0.30426 0.99081 0 0.2689-0.17173 0.65068-0.26638 0.59219-0.0398-0.0246-0.0723 0.0496-0.0723 0.16493 0 0.11528 0.0304 0.22231 0.0675 0.23783 0.0371 0.0155 0.21276 0.29492 0.39029 0.62089 0.46044 0.84542 1.1355 1.8708 2.0347 3.0903 0.42915 0.58209 1.1202 1.5481 1.5357 2.1467 0.41551 0.5986 1.0417 1.402 1.3915 1.7854 1.4417 1.5801 4.081 4.2615 4.9486 5.0276 0.51039 0.45064 1.3486 1.2153 1.8627 1.6992 0.51408 0.48394 1.3022 1.1779 1.7514 1.5422 0.44919 0.36428 1.057 0.87192 1.3508 1.1281 0.44509 0.38818 0.62635 0.48703 1.0883 0.59353 0.30483 0.0703 1.1448 0.34098 1.8666 0.60157 0.72178 0.26058 2.2458 0.79167 3.3867 1.1802 2.3548 0.80192 3.6197 1.2754 3.7942 1.4202 0.25152 0.20874 5.046 0.24757 7.2124 0.0584zm10.152-3.6033c-0.1361-0.16399 0.11498-0.40291 0.34627-0.3295 0.0747 0.0237 0.21008-0.013 0.30077-0.0816 0.0907-0.0686 0.21488-0.12592 0.27597-0.1274 0.25044-6e-3 1.0154-0.43817 1.0569-0.59704 0.0251-0.0961 0.11561-0.16765 0.21204-0.16765 0.0925 0 0.18783-0.0512 0.21182-0.11366 0.024-0.0625 0.17094-0.17553 0.32656-0.25113 0.15561-0.0756 0.45439-0.2529 0.66394-0.39398s0.40684-0.25667 0.43843-0.25687c0.0872-5.3e-4 1.082-0.59904 1.4761-0.88803 0.19152-0.14043 0.45822-0.31779 0.59267-0.39413 0.13444-0.0763 0.52428-0.31446 0.8663-0.52916 0.34202-0.21471 0.6345-0.39037 0.64995-0.39037 0.0288 0 1.3366-0.78069 1.5645-0.934 0.0699-0.047 0.2413-0.13862 0.381-0.20365 0.35078-0.16329 0.5959-0.5818 0.42421-0.72429-0.0968-0.0803-0.10357-0.14196-0.0307-0.27809 0.0753-0.14068 0.0647-0.19607-0.0544-0.28311-0.10261-0.075-0.13204-0.17173-0.096-0.31538 0.0365-0.14546 0.012-0.22251-0.0822-0.25867-0.0893-0.0343-0.1491 5e-3 -0.1786 0.11817-0.0495 0.18938-0.19396 0.23216-0.19396 0.0574 0-0.16154-0.39396-0.50857-0.50173-0.44196-0.05 0.0309-0.0909 0.1111-0.0909 0.1782s-0.0381 0.122-0.0847 0.122-0.0847-0.0762-0.0847-0.16933c0-0.30809-0.47878-0.16238-0.62098 0.18899-0.034 0.0839-0.0615 0.0815-0.12603-0.0108-0.0454-0.065-0.14067-0.0959-0.21169-0.0686-0.0754 0.0289-0.21815-0.0395-0.34316-0.1645-0.11773-0.11772-0.25246-0.19029-0.29942-0.16127-0.047 0.029-0.40119 0.0683-0.78721 0.0873s-0.93044 0.0773-1.2098 0.12955c-0.2794 0.0522-0.64135 0.10201-0.80434 0.11064-0.23466 0.0124-0.29633 0.0509-0.29633 0.18502 0 0.13796-0.0607 0.17173-0.32788 0.18225-0.19117 8e-3 -0.43625 0.093-0.5878 0.20509-0.17049 0.12605-0.27131 0.15802-0.29301 0.0929-0.067-0.20098-0.25011-0.1025-0.20903 0.11241 0.0281 0.14693 3e-3 0.21167-0.0821 0.21167-0.1293 0-0.29321-0.26599-0.33914-0.55034-0.0235-0.14554-0.0806-0.16512-0.40653-0.13935-0.50981 0.0403-0.55132 0.0804-0.32877 0.31728 0.23536 0.25052 0.17618 0.32754-0.1453 0.1891-0.32965-0.14196-0.3242-0.13444-0.20314-0.28031 0.0914-0.11009 0.0742-0.12905-0.11675-0.12905-0.15264 0-0.25261 0.0631-0.31428 0.19848-0.0905 0.19869-0.43479 0.22727-0.54718 0.0454-0.0743-0.12025-0.82575-0.0803-1.0023 0.0533-0.0958 0.0725-0.24513 0.10159-0.3659 0.0713-0.16024-0.0402-0.25853 0.0102-0.45785 0.23466-0.22632 0.25491-0.24922 0.2644-0.21149 0.0876 0.0411-0.19243 0.0294-0.19683-0.3963-0.14931-0.24123 0.0269-0.5148 0.0532-0.60794 0.0583-0.0931 5e-3 -0.34078 0.0421-0.55033 0.0822s-0.65314 0.11531-0.98578 0.1672c-0.4532 0.0707-0.65318 0.14587-0.79792 0.29994-0.22065 0.23487-0.35377 0.25757-0.49718 0.0848-0.13397-0.16143-0.60864-0.0892-1.1228 0.17082-0.23775 0.12024-0.41874 0.16774-0.44949 0.11798-0.0982-0.15897-0.33951-0.081-0.66004 0.21343-0.34602 0.3178-0.58902 0.37046-0.78858 0.17091-0.15236-0.15237-0.87887-0.11313-2.2863 0.12347-0.74138 0.12463-1.0173 0.13914-1.2968 0.0682-0.31292-0.0794-0.38403-0.0687-0.5994 0.0905-0.19566 0.14465-0.25781 0.1579-0.31184 0.0665-0.0371-0.0628-0.18178-0.15254-0.32148-0.19942-0.19677-0.066-0.24884-0.12947-0.23115-0.28155 0.0126-0.10796-0.0255-0.227-0.0847-0.26454-0.16266-0.10323-0.21691-0.0851-0.20395 0.0682 0.0178 0.21052-0.20408 0.24427-0.25771 0.0392-0.0256-0.098-0.0993-0.17826-0.16373-0.17826-0.0644 0-0.11713-0.0685-0.11713-0.15232 0-0.17856-0.50905-0.39363-0.75038-0.31703-0.0918 0.0291-0.20311-6e-3 -0.26787-0.0837-0.19428-0.2341-0.41897-0.31611-0.55554-0.20277-0.12102 0.10044-0.23605 0.0566-0.25713-0.0979-6e-3 -0.0427-0.0153-0.11268-0.0212-0.15555-6e-3 -0.0429-0.12745-0.10361-0.27029-0.13498-0.14284-0.0314-0.36191-0.11037-0.48683-0.17554-0.12492-0.0652-0.28914-0.11873-0.36493-0.11902-0.0758-2.5e-4 -0.18796-0.061-0.24926-0.13482-0.0741-0.0892-0.18957-0.11868-0.3443-0.0877-0.17814 0.0356-0.24466 9e-3 -0.28313-0.11188-0.0785-0.24725-0.30193-0.28444-0.5137-0.0855-0.16563 0.1556-0.21265 0.16391-0.37299 0.0659-0.15812-0.0967-0.19853-0.0919-0.29252 0.0347-0.06 0.0808-0.13362 0.12228-0.16366 0.0922-0.03-0.03-0.12151-7.9e-4 -0.20329 0.0648-0.44237 0.35532-0.53011 0.36339-0.92488 0.0851-0.20447-0.14412-0.44221-0.26204-0.52831-0.26204-0.22001 0-1.2958-1.0192-1.755-1.6627-0.35887-0.5029-0.53884-0.65453-0.53884-0.45397 0 0.14761-0.14785 0.0913-0.19073-0.0727-0.0226-0.0865-0.16042-0.21014-0.30621-0.27467-0.14578-0.0645-0.26506-0.14746-0.26506-0.1843 0-0.0368-0.0737-0.0275-0.16377 0.0207-0.2151 0.11512-0.25956 0.11062-0.25956-0.0262 0-0.21421-0.29981-0.41596-0.41388-0.27851-0.19768 0.23819-0.87818 0.13406-1.0169-0.1556-0.1201-0.25081-0.1208-0.25102-0.206-0.0601-0.12031 0.26962-0.35209 0.19987-0.35615-0.10718-2e-3 -0.13556-0.0494-0.26186-0.10583-0.28067-0.0564-0.0188-0.10258 6e-3 -0.10258 0.0549 0 0.049-0.0571 0.0671-0.127 0.0403s-0.127-0.12206-0.127-0.21167c0-0.0896-0.0667-0.18727-0.14816-0.21702-0.15155-0.0553-0.54346-0.34237-0.79895-0.58519-0.34085-0.32393-1.4441-0.71298-1.5475-0.5457-0.0905 0.14646-0.21473 0.10207-0.21473-0.0767 0-0.16145-0.22512-0.34164-0.42683-0.34164-0.0546 0-0.0768 0.0586-0.0493 0.1302 0.11288 0.29417-0.21446 0.22343-0.49779-0.10757-0.29176-0.34086-1.518-1.0386-1.8252-1.0386-0.0848 0-0.17773-0.0381-0.20651-0.0847-0.0288-0.0466-0.17935-0.0847-0.3346-0.0847-0.17281 0-0.30118-0.0493-0.33101-0.127-0.0268-0.0698-0.1427-0.127-0.25755-0.127s-0.31118-0.0389-0.43629-0.0865c-0.14042-0.0534-0.26404-0.0565-0.32301-8e-3 -0.22702 0.18632-0.68986 0.14882-0.66171-0.0536 0.04-0.28751-0.23913-0.24271-0.52749 0.0847-0.1809 0.20538-0.22833 0.23045-0.18699 0.0989 0.0967-0.30769-0.93556-0.87795-1.1019-0.60877-0.0269 0.0435-0.14364 0.0553-0.25943 0.0263-0.26082-0.0655-0.44511 0.0755-0.38738 0.29623 0.0671 0.25677-0.12715 0.19978-0.44907-0.13171-0.20994-0.21618-0.34158-0.28681-0.47977-0.25739-0.15201 0.0324-0.27589-0.0623-0.61378-0.46903-0.23283-0.28026-0.62335-0.74074-0.86783-1.0233-0.54057-0.62476-0.53966-0.51035-0.0196-2.4808 0.63139-2.3924 0.73098-2.7095 1.5031-4.7849 0.38981-1.0478 0.83593-2.2479 0.99139-2.667 0.3583-0.96593 1.3063-3.3133 1.607-3.9793 0.12617-0.2794 0.39706-0.939 0.60199-1.4658 0.34941-0.89818 0.79949-1.8036 1.1488-2.3112 0.0837-0.12153 0.82957-0.69626 1.6576-1.2772 0.82804-0.58091 2.5533-1.837 3.8339-2.7914 2.9652-2.2098 7.4688-5.2719 8.621-5.8615 0.29688-0.15192 2.9776-0.32325 4.587-0.29316 0.67521 0.0126 1.9135-0.0265 2.7517-0.087s1.6181-0.11601 1.733-0.12339c0.44874-0.0288 0.23952 0.2681-1.1589 1.6446-2.837 2.7925-2.9972 2.8969-7.6438 4.9831-1.3092 0.58779-2.9838 1.4149-3.302 1.631-0.16299 0.11066-1.1726 0.63286-2.2437 1.1604-3.3474 1.6489-4.8733 2.6753-5.6452 3.7972-0.97864 1.4224-2.434 6.3465-2.4397 8.2545-1e-3 0.43984 0.31708 0.30114 0.5577-0.24295 0.11573-0.26168 0.29993-0.59505 0.40934-0.74083 0.3911-0.52111 1.1272-2.186 1.9503-4.4109 0.54587-1.4756 0.70141-1.6965 1.66-2.3576 3.0842-2.127 5.9924-3.4352 6.0113-2.704 3e-3 0.12806 0.0354 0.53764 0.0713 0.91017 0.0443 0.45949 0.0275 0.93602-0.0523 1.4817-0.3137 2.145-0.0756 4.5525 0.68623 6.9396 0.1566 0.49065 0.33068 1.0902 0.38684 1.3324 0.38169 1.6458 0.73165 0.0167 0.38559-1.795-0.3428-1.7947-0.27033-4.0738 0.21136-6.6463 0.13515-0.72178 0.30907-1.6933 0.3865-2.159 0.19585-1.1779 0.23865-1.2424 1.005-1.5145 0.35191-0.12493 0.85867-0.35527 1.1261-0.51187s0.77204-0.37087 1.1213-0.47617 0.7112-0.23892 0.80433-0.29695c0.0931-0.058 0.46619-0.18563 0.82901-0.28356 2.0831-0.56224 7.1667-4.5406 8.7771-6.8687 0.80975-1.1707 1.0551-1.1275 6.1843 1.0878 1.604 0.69279 2.2382 1.0097 4.2333 2.1153 1.9425 1.0764 3.3221 1.8858 3.8523 2.2598 0.2794 0.19711 0.62732 0.41961 0.77316 0.49444 0.14583 0.0748 0.37443 0.25922 0.508 0.40974 0.13356 0.15051 0.46776 0.50428 0.74267 0.78616 0.91121 0.93432 1.5062 2.4938 2.166 5.6772 0.36473 1.7596 0.54939 2.3953 0.93464 3.2173 0.37829 0.8072 0.69411 1.2369 0.818 1.113 0.0582-0.0582 0.0264-0.35809-0.34683-3.272-0.1163-0.90805-0.27295-2.2606-0.3481-3.0057-0.32763-3.2481-0.48575-4.0099-1.0762-5.1849-0.56793-1.1301-0.65809-1.2274-1.5275-1.6486-0.28487-0.13799-0.74862-0.45215-1.0306-0.69813-0.50237-0.43829-0.8952-0.70906-4.1533-2.8628-2.3443-1.5497-2.431-1.6454-1.2497-1.3802 1.2152 0.27289 2.5976 0.53552 3.578 0.6797 1.2597 0.18527 2.4198 0.40371 4.1393 0.77947 1.0105 0.2208 1.4989 0.29005 1.7969 0.25476 0.52873-0.0626 1.127 0.3885 3.4889 2.631 0.55166 0.52375 1.4094 1.2833 1.9061 1.6879 1.5092 1.2294 3.2248 2.9075 3.2735 3.2018 0.0231 0.1397 0.13711 0.8636 0.25331 1.6087 0.11621 0.74507 0.30471 1.9452 0.41889 2.667 0.53416 3.3766 0.71607 6.8831 0.69544 13.405l-0.0155 4.8958-0.42197 0.30868c-0.43823 0.32057-0.99876 0.70818-2.9241 2.022-0.62621 0.42733-1.4815 1.0531-1.9006 1.3905-1.9139 1.5411-4.9918 3.7031-7.2813 5.1146-0.51223 0.3158-1.1599 0.73521-1.4393 0.93203-1.3059 0.91989-2.9287 1.767-3.556 1.8563-0.23283 0.0331-1.3109 0.28592-2.3956 0.56173-2.2064 0.56101-2.1553 0.55292-2.311 0.36532zm-20.99-7.5288c0-0.0713 0.0588-0.15222 0.13065-0.17979 0.1159-0.0445 0.11462-0.0679-0.0113-0.20702-0.0781-0.0863-0.17117-0.13883-0.20686-0.11677-0.0915 0.0565-0.0812 0.63324 0.0113 0.63324 0.0419 0 0.0762-0.0583 0.0762-0.12966zm0-28.918c0-0.0505 0.23747-0.19337 0.52771-0.3175 1.8256-0.78078 4.1052-2.0542 6.5595-3.6642 1.0907-0.71548 1.9423-1.5292 2.574-2.4594 0.18057-0.26589 0.53223-0.72404 0.78148-1.0181s0.59644-0.80138 0.77153-1.1273c0.1751-0.32597 0.35835-0.6418 0.40723-0.70186 0.0489-0.0601 0.14145-0.51725 0.20571-1.016 0.12672-0.98347 0.5087-2.2177 1.0468-3.3825 0.17948-0.38848 0.42678-1.075 0.54954-1.5257 0.29456-1.0812 0.46998-1.5353 1.4204-3.6771 1.7536-3.9516 2.13-6.0362 1.413-7.8267-0.39191-0.97875-0.28186-1.496 0.28786-1.353 0.1611 0.04043 0.26881 0.15236 0.35828 0.3723 0.0704 0.17297 0.29645 0.662 0.50242 1.0867s0.3745 0.81526 0.3745 0.86783c0 0.1932 0.23649 0.08825 0.33454-0.14846 0.10522-0.25403 0.36339-0.51562 0.8262-0.83715 0.56523-0.3927 0.58172-0.19928 0.0814 0.95518-0.73923 1.7059-1.3258 3.2351-1.526 3.9784-0.11289 0.4191-0.33974 1.2192-0.5041 1.778s-0.41347 1.4542-0.55359 1.9897c-0.14012 0.53552-0.33374 1.2586-0.43027 1.607-0.0965 0.34831-0.17552 0.79405-0.17552 0.99053s-0.0802 0.76875-0.17825 1.2717c-0.34942 1.7926-0.14756 2.6506 0.84514 3.5922 0.70893 0.67248 0.76567 0.71026 4.5401 3.0228 0.4191 0.25677 1.2686 0.72892 1.8878 1.0492 1.2814 0.66287 2.451 1.3574 3.1922 1.8958 0.2794 0.20294 1.1366 0.82446 1.905 1.3812 3.0117 2.1821 2.2657 2.2617-0.95817 0.1023-0.47419-0.31762-1.3167-0.83516-1.8723-1.1501-0.55557-0.31492-1.2985-0.75079-1.651-0.96859-0.35249-0.2178-0.75519-0.4456-0.89489-0.50622-0.1397-0.0606-0.7874-0.40684-1.4393-0.76938-1.1998-0.66723-2.3034-1.1891-2.5145-1.1891-0.2302 0-3.4778-1.3007-4.2165-1.6888-0.74953-0.39375-2.032 0.10022-2.032 0.78267 0 0.18298-0.55622 0.93775-1.2016 1.6306-0.34455 0.36986-0.86332 0.96535-1.1528 1.3233-0.92441 1.143-2.672 2.4934-4.1425 3.2009-0.40811 0.19637-1.0344 0.50504-1.3917 0.68594-2.2066 1.1171-4.5573 2.0264-4.5573 1.7628zm-3.6407-6.8763c0-0.15706 0.17731-0.31326 0.3556-0.31326 0.20257 0 0.19494 0.22527-0.0114 0.33568-0.22108 0.11832-0.34423 0.1103-0.34423-0.0224zm1.778-2.1727c0-0.20721 1.632-0.3366 4.318-0.34235 1.234-3e-3 2.5294-0.0423 2.8787-0.0882s1.2446-0.11973 1.9897-0.16414c0.74507-0.0444 1.4807-0.11798 1.6347-0.16347 0.28298-0.0836 0.52431-0.0468 0.52431 0.0801 0 0.17505-1.3113 0.4192-2.2568 0.4202-0.33318 2.6e-4 -1.0952 0.0546-1.6933 0.12064-1.2152 0.13409-7.3952 0.24879-7.3952 0.13725zm25.483-0.45736c-0.68209-0.50071-0.63269-0.49345-1.8655-0.27419-0.85468 0.15201-1.1949 0.18011-1.4269 0.11789-0.92108-0.24698-1.4115-0.89611-0.64338-0.85165 0.37859 0.0219 2.816 0.10112 3.2292 0.10494 0.38692 4e-3 1.3005 0.68916 1.3005 0.97594 0 0.28097-0.13424 0.26449-0.59388-0.0729zm-18.947-1.0802c0.087-0.2655 0.93134-0.75202 1.2888-0.74256 1.3538 0.0358 1.8362 0.359 0.88922 0.59569-0.81698 0.20419-2.2279 0.29933-2.178 0.14687zm-7.0019-17.172c-1.9198-0.17943-3.822-0.92865-5.334-2.101-2.3207-1.7993-2.9348-2.3829-4.7431-4.508-1.4023-1.648-4.0243-4.322-5.103-5.2042-0.38613-0.31579-0.68846-0.61492-0.67186-0.66473 0.0795-0.23836 7.2159 0.1651 7.2159 0.40795 0 0.04657-0.35294 0.26201-0.78432 0.47875-1.9372 0.97335-2.0749 1.2716-0.23261 0.50387 0.67611-0.28176 1.4895-0.59132 1.8075-0.68791l0.57816-0.17561 0.88199 0.1801c0.48509 0.09905 1.3392 0.29432 1.898 0.43392 1.1597 0.28973 2.9626 0.6657 3.1655 0.66014 0.46975-0.01288-1.4586-0.74447-3.1232-1.1849-0.67521-0.17865-1.3801-0.38267-1.5663-0.45339-0.18627-0.07072-0.53021-0.13025-0.76431-0.13229-0.23411-2e-3 -0.95801-0.07731-1.6087-0.16725-1.8357-0.25376-3.3678-0.34446-5.8183-0.34446-2.238 0-2.7371-0.06365-1.9924-0.25412 0.19931-0.05098 0.81959-0.2224 1.3784-0.38093 3.8926-1.1044 6.807-1.4161 10.313-1.1032 1.8306 0.16336 2.3775 0.48945 4.4995 2.6828 0.67735 0.70011 1.2316 1.2153 1.2316 1.145 0-0.28511-0.92986-1.5065-1.8033-2.3687-0.50938-0.50283-0.90165-0.93873-0.87171-0.96866 0.14994-0.14994 3.4682 0.62701 4.9778 1.1655 2.9648 1.0576 3.3638 1.3467 5.8383 4.2299 0.71384 0.83175 1.3102 1.5 1.3252 1.4849 0.12683-0.12684-0.81286-1.6021-1.6062-2.5218-0.99483-1.1531-0.60207-1.0424 1.6647 0.46953 2.4696 1.6471 6.6464 5.5405 6.6464 6.1953 0 0.03285 0.1143 0.32015 0.254 0.63844 0.39103 0.89091 0.36491 0.89129-0.92754 0.01338-2.5296-1.7182-5.9007-3.5721-8.6967-4.7825-2.6307-1.1389-5.3299-2.0532-4.273-1.4476 0.93165 0.53391 0.92227 0.53746-1.5188 0.57514l-2.0677 0.03192-1.2277 0.40214c-1.755 0.57488-3.8571 1.5479-3.6948 1.7102 0.0256 0.02559 0.72452-0.2213 1.5532-0.54866 2.1622-0.85417 2.2372-0.86587 6.685-1.0422 2.6864-0.10652 2.4254-0.15034 4.4169 0.74161 1.6082 0.72029 2.4932 1.1642 3.9654 1.9889 1.658 0.92885 1.6656 0.94691 0.36123 0.86078-3.6755-0.24269-7.3435 0.32664-9.1266 1.4166-0.48169 0.29445-0.25023 0.26426 0.6898-0.08998 1.9842-0.7477 2.0806-0.76087 5.5639-0.75921 5.1295 0.0024 5.1646 0.0098 7.3651 1.5416 1.3075 0.91019 1.3301 0.89168-1.0745 0.87959-2.2108-0.01111-2.7984 0.05346-5.3169 0.58431-2.1465 0.45243-7.7727 0.70782-10.329 0.46888zm22.902-0.682c0-0.32648 2.4569-3.0424 2.9043-3.2104 0.83633-0.31416 4.5486-0.41574 5.5888-0.15294 1.1312 0.28581 1.1772 0.06386 0.0594-0.28686-0.95462-0.29953-2.5471-0.30769-4.5944-0.02355-0.59695 0.08285-0.52691-0.1066 0.27271-0.7377 0.74036-0.58433 0.80513-0.69352 0.2435-0.41052-0.73138 0.36853-2.2318 1.6976-3.2697 2.8961-0.95575 1.1037-1.0589 1.0053-0.39281-0.37519 0.53774-1.1145 0.63382-1.2436 2.6719-3.5904 1.6356-1.8834 2.6989-2.8622 3.6884-3.3953 0.3898-0.21002 0.41431-0.10917 0.12322 0.50694-0.44276 0.93711-0.73632 2.0505-0.59916 2.2724 0.0965 0.15616 0.10999 0.12963 0.44481-0.87513 0.38008-1.1406 1.0478-2.4949 1.3288-2.6952 1.1396-0.8122 3.2209-1.6752 6.2293-2.5831 2.093-0.6316 2.0709-0.64265 0.9967 0.49818-0.40121 0.42609-0.84444 0.93472-0.98496 1.1303-0.2136 0.29726-0.46542 0.46247-1.5354 1.0073-2.5485 1.2978-4.5345 2.4381-4.4293 2.5432 0.0239 0.02387 0.17077-0.02522 0.32644-0.1091 0.35792-0.19285 3.9009-0.22066 5.8063-0.04557 1.8924 0.17389 1.8573-0.08201-0.0622-0.4542-0.41714-0.08088-1.3706-0.15846-2.2681-0.18454-1.9122-0.05558-1.9168-0.02451 0.15382-1.0525 0.90675-0.4502 1.8201-0.90388 2.0296-1.0082 0.54793-0.27276 2.3462-1.0835 2.794-1.2596 0.20955-0.08243 1.3426-0.53615 2.5178-1.0083 2.6433-1.0618 2.6021-1.0573 2.1393-0.23729-0.13943 0.24705-0.49816 1.0942-0.79719 1.8826-2.1562 5.6845-3.6802 7.4553-7.9663 9.256-1.832 0.76964-3.3984 1.108-5.5457 1.1981-4.1236 0.17286-5.8786 0.31265-6.9268 0.55175-0.74787 0.1706-0.94724 0.16068-0.94724-0.04711zm15.579-11.437c0-0.15461 1.5407-1.8079 1.787-1.9176 0.49201-0.21909 3.547-0.38105 3.547-0.18805 0 0.09955-0.15292 0.16927-2.032 0.92645-0.72178 0.29085-1.7007 0.69561-2.1754 0.89947-0.88324 0.37931-1.1266 0.43973-1.1266 0.2797z" stroke-width=".084667"/></g></svg>
